<?xml version="1.0" encoding="iso-8859-1"?>
<!-- Generator: Adobe Illustrator 19.0.0, SVG Export Plug-In . SVG Version: 6.00 Build 0)  -->
<svg version="1.1" id="Capa_1" xmlns="http://www.w3.org/2000/svg" xmlns:xlink="http://www.w3.org/1999/xlink" x="0px" y="0px"
	 viewBox="0 0 512 512" style="enable-background:new 0 0 512 512;" xml:space="preserve">
<g>
	<path style="fill:#EDF2FA;" d="M264.206,140.274h90.647h62.963V98.192V56.11h-153.61c-14.708,0-26.742,11.835-26.742,26.3v31.564
		C237.464,128.439,249.498,140.274,264.206,140.274z"/>
	<path style="fill:#FCB8E7;" d="M354.614,224.438H119.215h-12.601c-29.394,0-53.447,23.671-53.447,52.603
		c0,28.931,24.052,52.603,53.447,52.603h84.183h215.128c-17.399-10.851-28.118-30.903-28.118-52.603
		c0-21.7,10.718-41.752,28.118-52.603H354.614z"/>
	<path style="fill:#EDF2FA;" d="M154.301,371.726h21.542h21.542v22.465v27.194l-21.542-9.469l-21.542,9.469v-27.194V371.726
		L154.301,371.726z M254.708,392.766c0-34.718-28.861-63.122-64.137-63.122h-84.184H23.441c15.08,9.405,25.98,24.57,30.87,42.08
		c1.88,6.732,2.872,13.812,2.872,21.043c0,26.04-12.862,50.102-33.741,63.123h167.13
		C225.847,455.89,254.708,427.486,254.708,392.766z"/>
	<polygon style="fill:#FFC66C;" points="175.844,371.726 154.301,371.726 154.301,394.191 154.301,421.385 175.844,411.917 
		197.386,421.385 197.386,394.191 197.386,371.726 	"/>
	<path style="fill:#36D28F;" d="M255.226,392.766c0,34.72-28.861,63.124-64.137,63.124h245.864
		c35.276,0,64.137-28.404,64.137-63.124c0-34.718-28.861-63.122-64.137-63.122H416.91h-10.69H191.088
		C226.365,329.644,255.226,358.048,255.226,392.766z"/>
	<path style="fill:#FF5D5D;" d="M213.084,140.274h51.1c-14.696,0-26.72-11.835-26.72-26.3V82.41c0-14.465,12.024-26.3,26.72-26.3
		h-51.1c-14.696,0-26.72,11.835-26.72,26.3v31.564C186.364,128.439,198.388,140.274,213.084,140.274z"/>
	<path style="fill:#A2DAF9;" d="M213.144,140.274c-14.729,0-26.779-11.835-26.779-26.3V82.41c-0.001-14.465,12.051-26.3,26.779-26.3
		H103.931c-14.729,0-26.78,11.835-26.78,26.3v31.564c0,14.465,12.052,26.3,26.78,26.3h15.308H213.144z"/>
	<path style="fill:#EDF2FA;" d="M119.233,140.274v84.164H354.64c23.517,0,42.759-18.936,42.759-42.082l0,0
		c0-23.146-19.243-42.082-42.759-42.082H119.233z"/>
</g>
<path d="M437.843,319.624h-21.029h-7.67c-12.986-9.357-20.943-25.365-20.943-42.531c0-17.233,8.021-33.293,21.097-42.635h7.516
	c5.533,0,10.02-4.486,10.02-10.02s-4.487-10.02-10.02-10.02h-20.585c7.022-8.848,11.223-19.977,11.223-32.063
	c0-12.086-4.202-23.214-11.223-32.063h36.617c5.533,0,10.02-4.486,10.02-10.02s-4.487-10.02-10.02-10.02h-5.01V66.129h5.01
	c5.533,0,10.02-4.486,10.02-10.02s-4.487-10.02-10.02-10.02H103.875c-20.261,0-36.744,16.293-36.744,36.319v31.565
	c0,20.027,16.483,36.32,36.744,36.32h2.333h3.006v64.125h-2.585h-0.421c-0.139,0-0.276,0.015-0.414,0.021
	c-34.612,0.444-62.633,28.347-62.633,62.602c0,16.433,6.458,31.399,16.99,42.582H10.02c-5.533,0-10.02,4.486-10.02,10.02
	s4.487,10.02,10.02,10.02h9.858c16.76,11.478,27.079,31.719,27.079,53.446c0,21.301-9.917,41.173-26.099,52.761H10.02
	c-5.533,0-10.02,4.486-10.02,10.02s4.487,10.02,10.02,10.02h427.824c40.891,0,74.157-32.811,74.157-73.144
	C512,352.435,478.734,319.624,437.843,319.624z M407.796,88.172h-51.1c-5.533,0-10.02,4.486-10.02,10.02s4.487,10.02,10.02,10.02
	h51.1v22.043h-53.124H266.61c-0.756-0.182-1.543-0.29-2.356-0.29c-9.248,0-16.771-7.333-16.771-16.347V81.974
	c0-7.652,5.43-14.073,12.726-15.845h147.587V88.172z M215.51,130.254c-0.756-0.182-1.543-0.29-2.356-0.29
	c-9.247,0-16.771-7.333-16.771-16.347V81.974c0-7.652,5.43-14.073,12.726-15.845h22.014c-2.356,4.792-3.679,10.169-3.679,15.845
	v31.644c0,5.993,1.483,11.647,4.09,16.636H215.51z M103.875,130.254c-9.211,0-16.705-7.303-16.705-16.281V82.409
	c0-8.977,7.494-16.28,16.705-16.28h76.149c-2.356,4.792-3.679,10.169-3.679,15.845v31.644c0,5.993,1.483,11.647,4.09,16.636h-74.227
	H103.875z M129.252,192.376h31.061c5.534,0,10.02-4.486,10.02-10.02c0-5.534-4.486-10.02-10.02-10.02h-31.061v-22.043h225.42
	c18.053,0,32.74,14.383,32.74,32.063s-14.687,32.063-32.74,32.063h-43.064H129.252V192.376z M63.199,277.042
	c0-23.481,19.482-42.584,43.429-42.584h204.98h43.064c0.004,0,0.009,0,0.013,0c0.002,0,0.004,0,0.006,0h26.848
	c-8.526,12.123-13.378,27.06-13.378,42.635c0,15.53,4.826,30.427,13.307,42.531H192.376h-1.014h-84.733
	C82.682,319.624,63.199,300.522,63.199,277.042z M66.996,393.11c0-3.829-0.256-7.624-0.742-11.364h78.028v39.639
	c0,3.385,1.708,6.54,4.542,8.39c2.835,1.851,6.411,2.144,9.509,0.783l17.512-7.697l17.509,7.696
	c1.291,0.567,2.663,0.848,4.031,0.848c1.917,0,3.824-0.55,5.478-1.629c2.835-1.85,4.543-5.006,4.543-8.39v-49.659
	c0-5.534-4.486-10.02-10.02-10.02h-43.084H61.197c-3.056-7.983-7.259-15.425-12.445-22.043h57.877h84.733
	c29.84,0,54.118,23.822,54.118,53.105c0,29.281-24.277,53.103-54.118,53.103H49.287C60.535,431.201,66.996,412.583,66.996,393.11z
	 M164.321,381.746h23.045v24.29l-7.49-3.292c-2.569-1.13-5.496-1.129-8.064,0l-7.492,3.293V381.746z M437.843,445.871H242.277
	c14.296-13.341,23.241-32.206,23.241-53.105c0-20.898-8.945-39.762-23.241-53.103h162.276c0.6,0.111,1.204,0.186,1.808,0.186
	c0.614,0,1.222-0.075,1.824-0.186h8.63h21.029c29.841,0,54.118,23.822,54.118,53.105
	C491.961,422.049,467.684,445.871,437.843,445.871z"/>
<path d="M274.536,297.581c5.533,0,10.02-4.486,10.02-10.02s-4.487-10.02-10.02-10.02h-79.155c-5.533,0-10.02,4.486-10.02,10.02
	s4.487,10.02,10.02,10.02H274.536z"/>
<path d="M425.832,382.748H306.599c-5.533,0-10.02,4.486-10.02,10.02s4.487,10.02,10.02,10.02h119.233
	c5.533,0,10.02-4.486,10.02-10.02S431.365,382.748,425.832,382.748z"/>
<path d="M189.37,172.337h-1.002c-5.533,0-10.02,4.486-10.02,10.02c0,5.534,4.487,10.02,10.02,10.02h1.002
	c5.534,0,10.02-4.486,10.02-10.02C199.389,176.822,194.904,172.337,189.37,172.337z"/>
<g>
</g>
<g>
</g>
<g>
</g>
<g>
</g>
<g>
</g>
<g>
</g>
<g>
</g>
<g>
</g>
<g>
</g>
<g>
</g>
<g>
</g>
<g>
</g>
<g>
</g>
<g>
</g>
<g>
</g>
</svg>
