<?xml version="1.0" encoding="iso-8859-1"?>
<!-- Generator: Adobe Illustrator 19.0.0, SVG Export Plug-In . SVG Version: 6.00 Build 0)  -->
<svg version="1.1" id="Layer_1" xmlns="http://www.w3.org/2000/svg" xmlns:xlink="http://www.w3.org/1999/xlink" x="0px" y="0px"
	 viewBox="0 0 512 512" style="enable-background:new 0 0 512 512;" xml:space="preserve">
<polygon style="fill:#F7CE4D;" points="344.778,54.831 504.394,126.61 471.335,215.388 401.446,202.166 401.446,457.169 
	255.999,457.169 110.553,457.169 110.553,202.166 40.663,215.388 7.604,126.61 167.221,54.831 "/>
<path style="fill:#E2B844;" d="M167.221,54.831c0,42.387,39.752,76.756,88.779,76.756s88.779-34.369,88.779-76.756"/>
<path d="M507.513,119.674L402.075,72.259c-3.83-1.721-8.332-0.013-10.053,3.816c-1.723,3.83-0.014,8.332,3.816,10.054l98.947,44.496
	l-28.337,76.099l-63.588-12.03c-2.225-0.421-4.522,0.171-6.266,1.616c-1.744,1.445-2.753,3.591-2.753,5.855v247.399H118.157V276.381
	c0-4.199-3.404-7.604-7.604-7.604s-7.604,3.405-7.604,7.604V457.17c0,4.199,3.404,7.604,7.604,7.604h290.892
	c4.2,0,7.604-3.405,7.604-7.604V211.343l60.872,11.516c3.643,0.689,7.246-1.346,8.54-4.818l33.059-88.778
	C512.918,125.511,511.165,121.317,507.513,119.674z"/>
<path d="M102.949,251.035c0,4.199,3.404,7.604,7.604,7.604s7.604-3.405,7.604-7.604v-48.868c0-2.264-1.009-4.411-2.753-5.855
	c-1.743-1.444-4.037-2.036-6.266-1.616l-63.588,12.029l-28.336-76.099l143.279-64.433c6.36,41.162,46.762,72.998,95.505,72.998
	s89.145-31.835,95.505-72.998l22.207,9.987c3.828,1.722,8.333,0.014,10.053-3.816c1.723-3.83,0.014-8.331-3.816-10.054
	l-32.053-14.415c-0.98-0.441-2.044-0.669-3.119-0.669H167.221c-1.076,0-2.137,0.228-3.119,0.669L4.487,119.674
	c-3.653,1.642-5.405,5.836-4.007,9.589l33.058,88.778c1.292,3.47,4.89,5.505,8.54,4.818l60.872-11.516V251.035z M256,123.983
	c-41.742,0-76.214-26.984-80.673-61.548h161.347C332.214,97,297.742,123.983,256,123.983z"/>
<g>
</g>
<g>
</g>
<g>
</g>
<g>
</g>
<g>
</g>
<g>
</g>
<g>
</g>
<g>
</g>
<g>
</g>
<g>
</g>
<g>
</g>
<g>
</g>
<g>
</g>
<g>
</g>
<g>
</g>
</svg>
