<svg height="504pt" viewBox="0 -22 504 504" width="504pt" xmlns="http://www.w3.org/2000/svg"><path d="m24 39.921875h456v247.917969h-456zm0 0" fill="#e6e9ed"/><path d="m24 23.839844h456v16.082031h-456zm0 0" fill="#ccd1d9"/><path d="m48 63.921875h408v64h-408zm0 0" fill="#a0d468"/><path d="m264 339.839844c0 6.628906-5.371094 12-12 12s-12-5.371094-12-12 5.371094-12 12-12 12 5.371094 12 12zm0 0" fill="#ccd1d9"/><path d="m504 344v15.839844c0 13.511718-10.488281 24-24 24-5.679688 0-85.039062 0-176.078125 0-34.082031 0-69.769531 0-103.84375 0-91.039063 0-170.398437 0-176.078125 0-13.511719 0-24-10.488282-24-24v-15.839844c0 13.199219 10.800781 24 24 24h456c13.199219 0 24-10.800781 24-24zm0 0" fill="#ccd1d9"/><path d="m303.921875 383.839844 16 72h-135.84375l16-72zm0 0" fill="#ccd1d9"/><path d="m252 311.839844h-252v32.160156c0 13.199219 10.800781 24 24 24h456c13.199219 0 24-10.800781 24-24v-32.160156zm0 40c-6.640625 0-12-5.359375-12-12s5.359375-12 12-12 12 5.359375 12 12-5.359375 12-12 12zm0 0" fill="#e6e9ed"/><path d="m504 24v287.839844h-504v-287.839844c0-13.183594 10.800781-24 24-24h456c13.199219 0 24 10.808594 24 24zm-24 263.839844v-264h-456v264zm0 0" fill="#434a54"/><path d="m305.695312 391.839844-1.773437-8c-34.082031 0-69.769531 0-103.84375 0l-1.773437 8zm0 0" fill="#aab2bd"/><path d="m88 175.921875c-8.871094 0-16 7.125-16 16 0 8.871094 7.128906 16 16 16s16-7.128906 16-16c0-8.875-7.128906-16-16-16zm-40-24h192v112h-8l-52-80-36.230469 55.6875-15.769531-23.609375-32 47.921875h-48zm0 0" fill="#5d9cec"/><path d="m88 175.921875c8.871094 0 16 7.125 16 16 0 8.871094-7.128906 16-16 16s-16-7.128906-16-16c0-8.875 7.128906-16 16-16zm0 0" fill="#ffce54"/><path d="m143.769531 239.609375-15.769531 24.3125h-32l32-47.921875zm0 0" fill="#f5f7fa"/><path d="m180 183.921875 52 80h-104l15.769531-24.3125zm0 0" fill="#fff"/><path d="m36.046875 35.921875c-2.207031 0-4.039063-1.785156-4.039063-4 0-2.203125 1.753907-4 3.953126-4h.085937c2.199219 0 4 1.796875 4 4 0 2.214844-1.800781 4-4 4zm0 0" fill="#e6e9ed"/><path d="m52.046875 35.921875c-2.207031 0-4.039063-1.785156-4.039063-4 0-2.203125 1.753907-4 3.953126-4h.085937c2.199219 0 4 1.796875 4 4 0 2.214844-1.800781 4-4 4zm0 0" fill="#e6e9ed"/><path d="m68.046875 35.921875c-2.207031 0-4.039063-1.785156-4.039063-4 0-2.203125 1.753907-4 3.953126-4h.085937c2.199219 0 4 1.796875 4 4 0 2.214844-1.800781 4-4 4zm0 0" fill="#e6e9ed"/><path d="m332 459.769531h-160c-2.207031 0-4-1.785156-4-4 0-2.203125 1.792969-4 4-4h160c2.207031 0 4 1.902344 4 4.125 0 2.203125-1.792969 3.875-4 3.875zm0 0" fill="#e6e9ed"/><g fill="#ccd1d9"><path d="m343.886719 187.921875h-79.886719c-2.207031 0-4-1.785156-4-4 0-2.203125 1.792969-4 4-4h79.886719c2.210937 0 4 1.796875 4 4 0 2.214844-1.78125 4-4 4zm0 0"/><path d="m456 163.921875h-192c-2.207031 0-4-1.785156-4-4 0-2.203125 1.792969-4 4-4h192c2.207031 0 4 1.796875 4 4 0 2.214844-1.792969 4-4 4zm0 0"/><path d="m343.984375 211.921875h-79.984375c-2.207031 0-4-1.785156-4-4 0-2.203125 1.792969-4 4-4h79.984375c2.207031 0 4 1.796875 4 4 0 2.214844-1.792969 4-4 4zm0 0"/><path d="m343.992188 235.921875h-79.992188c-2.207031 0-4-1.785156-4-4 0-2.203125 1.792969-4 4-4h79.992188c2.207031 0 4 1.796875 4 4 0 2.214844-1.792969 4-4 4zm0 0"/><path d="m343.992188 259.921875h-79.992188c-2.207031 0-4-1.785156-4-4 0-2.203125 1.792969-4 4-4h79.992188c2.207031 0 4 1.796875 4 4 0 2.214844-1.792969 4-4 4zm0 0"/></g><path d="m407.984375 99.921875h-311.96875c-2.207031 0-4-1.785156-4-4 0-2.203125 1.792969-4 4-4h311.96875c2.207031 0 4 1.796875 4 4 0 2.214844-1.792969 4-4 4zm0 0" fill="#8cc152"/><path d="m476 459.902344h-88c-15.351562 0-27.902344-12.488282-28-27.832032v-192.300781c0-15.441406 12.558594-44.015625 28-44.015625h88c15.441406 0 28 28.574219 28 44.015625v192.140625c-.175781 15.585938-12.742188 27.992188-28 27.992188zm0 0" fill="#434a54"/><path d="m388 183.734375h88c13.199219 0 24 10.800781 24 24v208.160156.3125c-.160156 13.050781-10.871094 23.6875-24 23.6875h-88c-13.128906 0-23.921875-10.71875-24-23.839843 0-.078126 0-.078126 0-.160157v-208.160156c0-13.207031 10.800781-24 24-24zm52.230469 240.3125c0-4.40625-3.589844-8-8-8-4.390625 0-8 3.59375-8 8 0 4.394531 3.609375 8 8 8 4.410156 0 8-3.605469 8-8zm0 0" fill="#e6e9ed"/><path d="m428 335.769531 11.769531 17.824219-3.769531 6.328125h-24zm0 0" fill="#f5f7fa"/><path d="m460 319.769531 24 40.152344h-48l3.769531-6.328125zm0 0" fill="#fff"/><path d="m428 335.769531-16 24.160157h-32v-64.019532h104v64.019532l-24-40.160157-20.230469 33.832031zm0 0" fill="#5d9cec"/><path d="m380 231.902344h104v48h-104zm0 0" fill="#a0d468"/><path d="m504 215.886719v-8.015625c-.097656-15.34375-12.648438-27.832032-28-27.832032h-88c-15.199219 0-27.71875 12.328126-27.984375 27.839844h-.015625v8h144zm0 0" fill="#656d78"/><path d="m476 443.886719h-88c-15.351562 0-27.902344-12.488281-28-27.832031v-208.320313c0-15.4375 12.558594-28 28-28h88c15.441406 0 28 12.5625 28 28v208.160156c-.175781 15.585938-12.742188 27.992188-28 27.992188zm-88-256.152344c-11.03125 0-20 8.96875-20 20v208.160156c.0625 11.082031 9.039062 20 20 20h88c10.894531 0 19.863281-8.855469 20-19.734375v-208.425781c0-11.03125-8.96875-20-20-20zm0 0" fill="#656d78"/><path d="m444 203.886719h-24c-2.207031 0-4-1.78125-4-4 0-2.199219 1.792969-4 4-4h24c2.207031 0 4 1.800781 4 4 0 2.226562-1.792969 4-4 4zm0 0" fill="#434a54"/><path d="m468.230469 251.902344h-72c-2.207031 0-4-1.78125-4-4 0-2.199219 1.792969-4 4-4h72c2.210937 0 4 1.800781 4 4 0 2.21875-1.78125 4-4 4zm0 0" fill="#8cc152"/><path d="m452 267.902344h-39.511719c-2.207031 0-4-1.78125-4-4 0-2.199219 1.792969-4 4-4h39.511719c2.207031 0 4 1.800781 4 4 0 2.21875-1.792969 4-4 4zm0 0" fill="#8cc152"/><path d="m480.230469 379.921875h-95.992188c-2.207031 0-4-1.800781-4-4 0-2.21875 1.792969-4 4-4h95.992188c2.210937 0 4 1.78125 4 4 0 2.199219-1.78125 4-4 4zm0 0" fill="#ccd1d9"/><path d="m480.230469 395.921875h-95.992188c-2.207031 0-4-1.800781-4-4 0-2.21875 1.792969-4 4-4h95.992188c2.210937 0 4 1.78125 4 4 0 2.199219-1.78125 4-4 4zm0 0" fill="#ccd1d9"/><path d="m360 408.046875v8.015625c.097656 15.34375 12.648438 27.832031 28 27.832031h88c15.199219 0 27.71875-12.328125 27.984375-27.839843h.015625v-8h-144zm0 0" fill="#656d78"/><path d="m432.230469 416.046875c4.410156 0 8 3.59375 8 8 0 4.394531-3.589844 8-8 8-4.390625 0-8-3.605469-8-8 0-4.40625 3.609375-8 8-8zm0 0" fill="#aab2bd"/><path d="m412.230469 319.902344c0 4.410156-3.589844 8-8 8-4.390625 0-8-3.589844-8-8 0-4.390625 3.609375-8 8-8 4.410156 0 8 3.609375 8 8zm0 0" fill="#ffce54"/></svg>